<svg xmlns="http://www.w3.org/2000/svg" width="64" height="64" viewBox="0 0 64 64" role="img" aria-labelledby="title">
    <title id="title">Shree Vrindavan Tour Packages</title>
    <defs>
        <linearGradient id="background" x1="8" y1="7" x2="57" y2="58" gradientUnits="userSpaceOnUse">
            <stop stop-color="#FFF8EA"/>
            <stop offset="1" stop-color="#FBE6D5"/>
        </linearGradient>
        <linearGradient id="feather" x1="17" y1="55" x2="49" y2="8" gradientUnits="userSpaceOnUse">
            <stop stop-color="#159074"/>
            <stop offset="0.55" stop-color="#08758C"/>
            <stop offset="1" stop-color="#25468B"/>
        </linearGradient>
    </defs>
    <rect x="2" y="2" width="60" height="60" rx="16" fill="url(#background)" stroke="#D89A2A" stroke-width="2"/>
    <path d="M16 55C23 43 28 31 33 20C37 13 42 9 48 6" fill="none" stroke="#D89A2A" stroke-width="3" stroke-linecap="round"/>
    <path d="M27 39C18 36 13 30 12 22C20 24 27 29 30 35" fill="#35A77D"/>
    <path d="M31 42C29 31 32 17 43 10C54 18 54 32 46 42C41 48 35 48 31 42Z" fill="url(#feather)"/>
    <path d="M35 39C34 31 37 22 43 17C50 23 50 32 46 38C42 43 38 43 35 39Z" fill="#E2A532"/>
    <ellipse cx="42" cy="30" rx="6" ry="8" fill="#1A285E"/>
    <ellipse cx="41" cy="28" rx="2" ry="3" fill="#51C2AF"/>
</svg>
